<!DOCTYPE svg PUBLIC "-//W3C//DTD SVG 20010904//EN" "http://www.w3.org/TR/2001/REC-SVG-20010904/DTD/svg10.dtd">
<svg version="1.0" xmlns="http://www.w3.org/2000/svg" width="235px" height="235px" viewBox="0 0 2350 2350" preserveAspectRatio="xMidYMid meet">
<g id="layer101" fill="#00b8a9" stroke="none">
<path d="M1109 1593 c-171 -180 -224 -422 -148 -665 12 -37 28 -73 35 -79 8 -6 14 -15 14 -20 0 -19 55 -96 108 -151 l55 -57 44 47 c80 86 133 172 166 272 18 54 22 88 22 195 0 149 -21 231 -84 336 -37 61 -136 179 -150 179 -4 0 -32 -26 -62 -57z"/>
</g>
<g id="layer102" fill="#f6416c" stroke="none">
<path d="M955 1665 c-81 -15 -143 -38 -200 -74 -183 -118 -285 -295 -285 -494 l0 -79 92 7 c95 8 191 33 243 65 29 18 30 22 33 97 5 144 78 329 171 435 58 66 60 64 -54 43z"/>
<path d="M1286 1672 c-2 -4 14 -27 37 -49 48 -47 114 -166 148 -263 13 -39 24 -103 28 -159 l6 -95 46 -23 c62 -32 137 -51 236 -59 l83 -7 0 76 c0 85 -17 162 -54 243 -76 166 -254 303 -427 328 -25 4 -58 9 -72 11 -14 3 -28 2 -31 -3z"/>
</g>
<g id="layer103" fill="#ffde7d" stroke="none">
<path d="M645 1779 c-32 -5 -80 -16 -105 -24 -49 -16 -148 -84 -190 -129 l-25 -28 36 -31 c95 -86 132 -102 154 -70 20 29 97 105 136 134 50 39 192 109 220 109 46 1 -7 27 -69 35 -31 3 -66 8 -77 10 -11 1 -47 -1 -80 -6z"/>
<path d="M1580 1783 c-132 -22 -159 -35 -98 -47 95 -19 278 -145 341 -235 16 -25 17 -25 52 -8 43 20 125 94 125 112 0 18 -83 88 -141 120 -71 38 -216 69 -279 58z"/>
</g>
<g id="layer104" fill="#f8f3d4" stroke="none">
<path d="M773 980 c-24 -11 -59 -22 -79 -26 -44 -8 -49 -20 -38 -97 l9 -62 39 3 c36 3 172 44 182 55 3 2 -5 36 -18 76 -24 79 -28 81 -95 51z"/>
<path d="M1484 964 c-4 -22 -13 -52 -21 -67 -8 -16 -12 -34 -10 -41 6 -14 105 -47 170 -56 53 -7 51 -11 62 88 4 38 2 53 -7 56 -7 2 -42 14 -78 25 -113 38 -108 38 -116 -5z"/>
</g>


</svg>