<!DOCTYPE svg PUBLIC "-//W3C//DTD SVG 20010904//EN" "http://www.w3.org/TR/2001/REC-SVG-20010904/DTD/svg10.dtd">
<svg version="1.0" xmlns="http://www.w3.org/2000/svg" width="168px" height="121px" viewBox="0 0 1680 1210" preserveAspectRatio="xMidYMid meet">
<g id="layer101" fill="#00b8a9" stroke="none">
<path d="M778 1000 c-71 -81 -120 -163 -149 -251 -34 -104 -35 -302 -2 -399 34 -100 86 -185 168 -274 l45 -48 45 48 c82 89 134 174 168 274 18 54 22 88 22 195 0 149 -21 231 -84 336 -38 63 -136 179 -151 179 -5 0 -33 -27 -62 -60z"/>
</g>
<g id="layer102" fill="#f6416c" stroke="none">
<path d="M623 1074 c-280 -51 -483 -291 -483 -571 l0 -76 83 7 c99 8 174 27 236 59 l46 23 6 95 c4 56 15 120 28 159 34 97 100 216 148 263 60 59 54 63 -64 41z"/>
<path d="M956 1082 c-2 -4 14 -27 37 -49 48 -47 114 -166 148 -263 13 -39 24 -103 28 -159 l6 -95 46 -23 c62 -32 137 -51 236 -59 l83 -7 0 76 c0 85 -17 162 -54 243 -76 166 -254 303 -427 328 -25 4 -58 9 -72 11 -14 3 -28 2 -31 -3z"/>
</g>
<g id="layer103" fill="#ffde7d" stroke="none">
<path d="M303 1185 c-39 -7 -95 -24 -125 -37 -58 -27 -156 -101 -165 -124 -8 -20 57 -86 113 -116 l44 -23 17 25 c63 91 246 217 341 236 47 9 39 21 -20 33 -98 19 -133 20 -205 6z"/>
<path d="M1250 1193 c-132 -22 -159 -35 -98 -47 95 -19 278 -145 341 -235 16 -25 17 -25 52 -8 43 20 125 94 125 112 0 18 -83 88 -141 120 -71 38 -216 69 -279 58z"/>
</g>
<g id="layer104" fill="#f8f3d4" stroke="none">
<path d="M465 398 c-11 -7 -47 -20 -80 -29 l-60 -16 3 -54 c5 -96 5 -96 59 -89 65 9 164 42 170 56 2 7 -2 25 -10 41 -8 15 -17 45 -21 66 -7 40 -24 46 -61 25z"/>
<path d="M1154 374 c-4 -22 -13 -52 -21 -67 -8 -16 -12 -34 -10 -41 6 -14 105 -47 170 -56 53 -7 51 -11 62 88 4 38 2 53 -7 56 -7 2 -42 14 -78 25 -113 38 -108 38 -116 -5z"/>
</g>


</svg>